<svg width="280" height="212" viewBox="0 0 280 212" fill="none" xmlns="http://www.w3.org/2000/svg">
<g clip-path="url(#clip0_1_371)">
<path d="M16.0398 63.9858C14.2624 61.7149 13.2468 59.7536 12.8914 57.9988C11.3171 51.6506 20.8132 51.6506 19.239 57.9988C18.8327 59.7536 17.7663 61.8181 16.0398 63.9858ZM25.6882 69.1986C22.7429 70.4889 19.7976 68.4244 17.3093 65.6374C24.6218 56.3473 20.6101 51.2893 16.0398 51.2893C12.1804 51.2893 10.0476 54.5408 10.9109 58.4633C11.4187 60.5794 12.6882 62.902 14.7703 65.5858C12.4851 68.1148 10.5554 69.3535 8.77809 69.5083C5.2742 70.076 2.53203 66.618 3.85234 63.0568C4.91874 60.2698 11.7234 46.541 12.0281 45.8184C13.0945 43.6507 13.8054 41.7411 16.1921 41.7411C18.4773 41.7411 19.2898 43.5475 20.4069 46.0249C22.9968 51.0312 26.7038 58.6698 28.4811 63.0568C29.2428 65.3793 28.278 68.1148 25.6882 69.1986ZM29.0397 59.4956C19.9499 39.9347 19.4421 39.625 16.0398 39.625C12.8406 39.625 11.4695 41.8959 10.0984 44.7862C2.58281 60.0117 1.92266 62.0762 1.77031 62.3342C0.0437582 67.289 3.69999 71.6244 8.06716 71.6244C9.59059 71.6244 12.3835 71.2115 15.989 67.1858C20.153 71.7792 23.1491 71.6244 23.9108 71.6244C28.3288 71.6244 31.985 67.2374 30.2077 62.3342C30.2585 62.0246 29.0397 59.5472 29.0397 59.4956Z" fill="white"/>
</g>
<g clip-path="url(#clip1_1_371)">
<path d="M70.1286 71.625H66.1939C65.185 71.625 64.3778 70.7697 64.3778 69.7131V57.7382H61.1494C60.1405 57.7382 59.3333 56.8829 59.3333 55.8263V52.3546C59.3333 51.298 60.1405 50.4426 61.1494 50.4426H64.277V47.2728C64.277 42.6942 67.001 39.625 71.0366 39.625H74.0633C75.0722 39.625 75.8793 40.4803 75.8793 41.5369V45.6124C75.8793 46.669 75.0722 47.5244 74.0633 47.5244H71.995C71.9446 47.5244 71.9446 47.5244 71.8942 47.5244C71.8942 47.5747 71.8942 47.625 71.8942 47.6753V50.3923H74.7695C75.3749 50.4426 75.8793 50.6942 76.2324 51.0967C76.5855 51.5495 76.7369 52.1533 76.636 52.7068L76.0307 56.1281C75.9298 57.0338 75.1731 57.6879 74.2146 57.6879H71.8942V69.7131C71.8942 70.7193 71.087 71.625 70.1286 71.625ZM65.2354 55.9772C65.7399 55.9772 66.1434 56.3797 66.1434 56.8829V69.7131C66.1434 69.8137 66.1939 69.864 66.1939 69.864H70.1286C70.1286 69.864 70.179 69.8137 70.179 69.7131V56.7822C70.179 56.2791 70.5826 55.8766 71.087 55.8766H74.2651C74.2651 55.8766 74.3155 55.8766 74.3155 55.8263V55.7759L74.9209 52.4049C74.9209 52.3042 74.9209 52.2539 74.8704 52.2036C74.8704 52.2036 74.82 52.1533 74.7695 52.1533H71.0366C70.5321 52.1533 70.1286 51.7508 70.1286 51.2476V47.6753C70.1286 46.7697 70.2799 45.7634 71.995 45.7634H74.0633C74.0633 45.7634 74.1137 45.7131 74.1137 45.6124V41.5873C74.1137 41.4866 74.0633 41.4363 74.0633 41.4363H71.087C68.0603 41.4363 66.093 43.7508 66.093 47.3231V51.3986C66.093 51.9017 65.6894 52.3042 65.185 52.3042H61.1494C61.1494 52.3042 61.0989 52.3546 61.0989 52.4552V55.9269C61.0989 56.0275 61.1494 56.0778 61.1494 56.0778L65.2354 55.9772Z" fill="white"/>
</g>
<g clip-path="url(#clip2_1_371)">
<path d="M128.038 39.625C132.422 39.625 136 43.1581 136 47.5493V63.6502C136 68.0414 132.472 71.625 128.088 71.625H111.962C107.578 71.625 104 68.0919 104 63.7007V47.5493C104 43.1581 107.528 39.625 111.912 39.625H128.038ZM128.038 41.3916H111.912C108.535 41.3916 105.764 44.1676 105.764 47.5493V63.7007C105.764 67.1329 108.535 69.9089 111.912 69.9089H128.088C131.465 69.9089 134.236 67.1329 134.236 63.7007V47.5998C134.236 44.1676 131.465 41.3916 128.038 41.3916ZM119.975 48.2054C124.057 48.2054 127.383 51.5367 127.383 55.625C127.383 59.7133 124.057 63.0446 119.975 63.0446C115.893 63.0446 112.567 59.7133 112.567 55.625C112.567 51.5367 115.893 48.2054 119.975 48.2054ZM119.975 49.972C116.85 49.972 114.331 52.4957 114.331 55.625C114.331 58.7543 116.85 61.278 119.975 61.278C123.099 61.278 125.619 58.7543 125.619 55.625C125.619 52.4957 123.099 49.972 119.975 49.972ZM128.088 44.5714C129.146 44.5714 130.003 45.4294 130.003 46.4894C130.003 47.5493 129.146 48.4073 128.088 48.4073C127.03 48.4073 126.173 47.5493 126.173 46.4894C126.173 45.4294 127.03 44.5714 128.088 44.5714Z" fill="white"/>
</g>
<defs>
<clipPath id="clip0_1_371">
<rect width="32" height="32" fill="white" transform="translate(0 39.625)"/>
</clipPath>
<clipPath id="clip1_1_371">
<rect width="32" height="32" fill="white" transform="translate(52 39.625)"/>
</clipPath>
<clipPath id="clip2_1_371">
<rect width="32" height="32" fill="white" transform="translate(104 39.625)"/>
</clipPath>
</defs>
</svg>
