<svg width="136" height="33" viewBox="0 0 136 33" fill="none" xmlns="http://www.w3.org/2000/svg">
<path d="M16.0398 24.3608C14.2624 22.0899 13.2468 20.1286 12.8914 18.3738C11.3171 12.0256 20.8132 12.0256 19.239 18.3738C18.8327 20.1286 17.7663 22.1931 16.0398 24.3608ZM25.6882 29.5736C22.7429 30.8639 19.7976 28.7994 17.3093 26.0124C24.6218 16.7223 20.6101 11.6643 16.0398 11.6643C12.1804 11.6643 10.0476 14.9158 10.9109 18.8383C11.4187 20.9544 12.6882 23.277 14.7703 25.9608C12.4851 28.4898 10.5554 29.7285 8.77809 29.8833C5.2742 30.451 2.53203 26.993 3.85234 23.4318C4.91874 20.6448 11.7234 6.916 12.0281 6.19343C13.0945 4.02573 13.8054 2.11609 16.1921 2.11609C18.4773 2.11609 19.2898 3.9225 20.4069 6.39988C22.9968 11.4062 26.7038 19.0448 28.4811 23.4318C29.2428 25.7543 28.278 28.4898 25.6882 29.5736ZM29.0397 19.8706C19.9499 0.309671 19.4421 0 16.0398 0C12.8406 0 11.4695 2.27092 10.0984 5.16119C2.58281 20.3867 1.92266 22.4512 1.77031 22.7092C0.0437582 27.664 3.69999 31.9994 8.06716 31.9994C9.59059 31.9994 12.3835 31.5865 15.989 27.5608C20.153 32.1542 23.1491 31.9994 23.9108 31.9994C28.3288 31.9994 31.985 27.6124 30.2077 22.7092C30.2585 22.3996 29.0397 19.9222 29.0397 19.8706Z" fill="white"/>
<path d="M70.1286 32H66.1939C65.185 32 64.3778 31.1447 64.3778 30.0881V18.1132H61.1494C60.1405 18.1132 59.3333 17.2579 59.3333 16.2013V12.7296C59.3333 11.673 60.1405 10.8176 61.1494 10.8176H64.277V7.6478C64.277 3.06918 67.001 0 71.0366 0H74.0633C75.0722 0 75.8793 0.855346 75.8793 1.91195V5.98742C75.8793 7.04403 75.0722 7.89937 74.0633 7.89937H71.995C71.9446 7.89937 71.9446 7.89937 71.8942 7.89937C71.8942 7.94969 71.8942 8 71.8942 8.05031V10.7673H74.7695C75.3749 10.8176 75.8793 11.0692 76.2324 11.4717C76.5855 11.9245 76.7369 12.5283 76.636 13.0818L76.0307 16.5031C75.9298 17.4088 75.1731 18.0629 74.2146 18.0629H71.8942V30.0881C71.8942 31.0943 71.087 32 70.1286 32ZM65.2354 16.3522C65.7399 16.3522 66.1434 16.7547 66.1434 17.2579V30.0881C66.1434 30.1887 66.1939 30.239 66.1939 30.239H70.1286C70.1286 30.239 70.179 30.1887 70.179 30.0881V17.1572C70.179 16.6541 70.5826 16.2516 71.087 16.2516H74.2651C74.2651 16.2516 74.3155 16.2516 74.3155 16.2013V16.1509L74.9209 12.7799C74.9209 12.6792 74.9209 12.6289 74.8704 12.5786C74.8704 12.5786 74.82 12.5283 74.7695 12.5283H71.0366C70.5321 12.5283 70.1286 12.1258 70.1286 11.6226V8.05031C70.1286 7.14465 70.2799 6.13836 71.995 6.13836H74.0633C74.0633 6.13836 74.1137 6.08805 74.1137 5.98742V1.96226C74.1137 1.86164 74.0633 1.81132 74.0633 1.81132H71.087C68.0603 1.81132 66.093 4.12579 66.093 7.69811V11.7736C66.093 12.2767 65.6894 12.6792 65.185 12.6792H61.1494C61.1494 12.6792 61.0989 12.7296 61.0989 12.8302V16.3019C61.0989 16.4025 61.1494 16.4528 61.1494 16.4528L65.2354 16.3522Z" fill="white"/>
<g clip-path="url(#clip0_1_372)">
<path d="M128.038 0C132.422 0 136 3.53312 136 7.92429V24.0252C136 28.4164 132.472 32 128.088 32H111.962C107.578 32 104 28.4669 104 24.0757V7.92429C104 3.53312 107.528 0 111.912 0H128.038ZM128.038 1.76656H111.912C108.535 1.76656 105.764 4.54259 105.764 7.92429V24.0757C105.764 27.5079 108.535 30.2839 111.912 30.2839H128.088C131.465 30.2839 134.236 27.5079 134.236 24.0757V7.97476C134.236 4.54259 131.465 1.76656 128.038 1.76656ZM119.975 8.58044C124.057 8.58044 127.383 11.9117 127.383 16C127.383 20.0883 124.057 23.4196 119.975 23.4196C115.893 23.4196 112.567 20.0883 112.567 16C112.567 11.9117 115.893 8.58044 119.975 8.58044ZM119.975 10.347C116.85 10.347 114.331 12.8707 114.331 16C114.331 19.1293 116.85 21.653 119.975 21.653C123.099 21.653 125.619 19.1293 125.619 16C125.619 12.8707 123.099 10.347 119.975 10.347ZM128.088 4.94637C129.146 4.94637 130.003 5.80442 130.003 6.86435C130.003 7.92429 129.146 8.78234 128.088 8.78234C127.03 8.78234 126.173 7.92429 126.173 6.86435C126.173 5.80442 127.03 4.94637 128.088 4.94637Z" fill="white"/>
</g>
<defs>
<clipPath id="clip0_1_372">
<rect width="32" height="32" fill="white" transform="translate(104)"/>
</clipPath>
</defs>
</svg>
